<?xml version="1.0" encoding="UTF-8" standalone="no"?>
<svg height="24px" viewBox="0 -960 960 960" width="24px" fill="#e8eaed" version="1.1" id="svg1"
    xmlns="http://www.w3.org/2000/svg">
    <rect style="fill:#CDEDA3;stroke-width:40" id="rect2" width="960" height="960" x="-2.3254969"
        y="-960" rx="216" />
    <path fill="#102000"
        d="M 439-82 q -76-8-141.5-42.5 t -113.5-88 Q 136-266 108.5-335 T 81-481 q 0-155 102.5-268.5 T 440-880 v 80 q -121 17-200 107.5 T 161-481 q 0 121 79 211.5 T 439-162 v 80 Z m 40-198 Z m 40 198 v -80 q 43-6 82.5-23 t 73.5-43 l 58 58 q -47 37-101 59.5 T 519-82 Z m 158-652 q -35-26-74.5-43 T 520-800 v -80 q 59 6 113 28.5 T 733-792 l -56 58 Z m 112 506-56-57 q 26-34 42-73.5 t 22-82.5 h 82 q -8 59-30 113.5 T 789-228 Z m 8-293 q -6-43-22-82.5 T 733-677 l 56-57 q 38 45 61 99.5 T 879-521 h -82 Z"
        id="path1" />
    <path fill="#102000"
        d="M 480-360 q 50 0 85-35 t 35-85 q 0-50-35-85 t -85-35 q -50 0-85 35 t -35 85 q 0 50 35 85 t 85 35 Z"
        id="path2" />
</svg>
